<?xml version="1.0" encoding="UTF-8" standalone="no"?>
<!-- Created with Inkscape (http://www.inkscape.org/) -->

<svg
   width="6.9466743mm"
   height="8.7894077mm"
   viewBox="0 0 6.9466743 8.7894077"
   version="1.1"
   id="svg1"
   inkscape:export-filename="tim.svg"
   inkscape:export-xdpi="96"
   inkscape:export-ydpi="96"
   inkscape:version="1.3 (0e150ed6c4, 2023-07-21)"
   sodipodi:docname="tim.svg"
   xmlns:inkscape="http://www.inkscape.org/namespaces/inkscape"
   xmlns:sodipodi="http://sodipodi.sourceforge.net/DTD/sodipodi-0.dtd"
   xmlns="http://www.w3.org/2000/svg"
   xmlns:svg="http://www.w3.org/2000/svg">
  <sodipodi:namedview
     id="namedview1"
     pagecolor="#ffffff"
     bordercolor="#000000"
     borderopacity="0.25"
     inkscape:showpageshadow="2"
     inkscape:pageopacity="0.0"
     inkscape:pagecheckerboard="0"
     inkscape:deskcolor="#d1d1d1"
     inkscape:document-units="mm"
     inkscape:zoom="5.780221"
     inkscape:cx="135.11594"
     inkscape:cy="87.799412"
     inkscape:window-width="2560"
     inkscape:window-height="1361"
     inkscape:window-x="-9"
     inkscape:window-y="-9"
     inkscape:window-maximized="1"
     inkscape:current-layer="layer1" />
  <defs
     id="defs1" />
  <g
     inkscape:label="Ebene 1"
     inkscape:groupmode="layer"
     id="layer1"
     transform="translate(-1.6091381,-3.0402857)">
    <path
       class="cls-5"
       d="M 3.1951073,11.078308 C 2.9129444,11.053641 2.6327175,10.966447 2.3782325,10.815219 2.2763373,10.754628 2.1637598,10.714184 2.0456589,10.703285 l -0.404637,-0.03736 0.1213279,0.154312 c 0.3330737,0.423639 0.8371669,0.684434 1.3759664,0.691246 0.00459,0 0.00918,6.3e-5 0.013776,1.27e-4 l 0.077585,4.67e-4"
       id="path1"
       style="fill:none;stroke:#00ff64;stroke-width:0.0637753;stroke-linecap:round;stroke-linejoin:round" />
    <path
       class="cls-5"
       d="m 5.4540626,11.797806 h 1.2149153 c 0,-0.230462 -0.1868655,-0.417328 -0.4173284,-0.417328 h -0.06389 c 0.2154763,-0.07967 0.3857779,-0.259863 0.4473027,-0.491761 0.064463,-0.242724 -0.002,-0.501512 -0.1753939,-0.683214 l -0.094581,-0.0991"
       id="path2"
       style="fill:none;stroke:#00ff64;stroke-width:0.0637753;stroke-linecap:round;stroke-linejoin:round" />
    <path
       class="cls-5"
       d="m 3.6722383,9.6599618 v 0 C 3.7710496,9.5622272 3.8389559,9.4376021 3.8673506,9.3015762 L 3.9863109,8.7318718 C 4.123844,8.0733948 4.5109124,7.4467544 5.0202405,7.0074128"
       id="path3"
       style="fill:none;stroke:#00ff64;stroke-width:0.0637753;stroke-linecap:round;stroke-linejoin:round" />
    <path
       class="cls-4"
       d="m 4.8923896,11.571646 c -0.085186,0.01262 -0.1765413,0.01469 -0.2765694,0.0054"
       id="path4"
       style="fill:#ffffff;stroke:#00ff64;stroke-width:0.0637753;stroke-linecap:round;stroke-linejoin:round" />
    <path
       class="cls-5"
       d="m 4.3822717,11.390517 c 0.2131109,-0.07881 0.3649851,-0.283813 0.3649851,-0.524315 v 0 c 0,-0.511909 -0.3058257,-0.9523288 -0.744739,-1.1485879 C 3.6260599,9.5493197 3.1887976,9.7632894 3.0876922,10.163052 v 0 c -0.078232,0.30934 -0.036428,0.636822 0.1169519,0.91662 l 0.1750346,0.319307"
       id="path5"
       style="fill:none;stroke:#00ff64;stroke-width:0.0637753;stroke-linecap:round;stroke-linejoin:round" />
    <path
       class="cls-5"
       d="m 3.5637483,11.380406 c -0.090278,0 -0.174031,0.02875 -0.2424374,0.07766 -0.1474286,0.105408 -0.067118,0.339671 0.1140829,0.339671 h 1.2149153 c 0,-0.230463 -0.1868649,-0.417329 -0.4173284,-0.417329 H 3.9727585"
       id="path6"
       style="fill:none;stroke:#00ff64;stroke-width:0.0637753;stroke-linecap:round;stroke-linejoin:round" />
    <path
       class="cls-5"
       d="m 7.3447356,8.9364491 c 0,0 -0.081744,0.4037041 -0.2316102,0.6216193 C 6.9175831,9.8423829 6.6030805,10.088549 6.2580311,10.088549 v 0 c -0.3450494,0 -0.6553932,-0.2100982 -0.7835321,-0.5304806"
       id="path7"
       style="fill:none;stroke:#00ff64;stroke-width:0.0637753;stroke-linecap:round;stroke-linejoin:round" />
    <path
       class="cls-5"
       d="m 7.1035886,5.6717432 0.017499,0.1922446 c 0.039438,0.3502843 0.1784054,0.6819238 0.4004782,0.9556266 v 0 c 0.2666027,0.3286294 0.4120223,0.7388593 0.4120223,1.1620674"
       id="path8"
       style="fill:none;stroke:#00ff64;stroke-width:0.0637753;stroke-linecap:round;stroke-linejoin:round" />
    <path
       class="cls-5"
       d="m 4.6522462,8.2139382 v -0.025886 c 0,-0.4801435 0.1662859,-0.9454437 0.4706068,-1.3168824 v 0 C 5.3833609,6.5532267 5.5302141,6.1573378 5.5401095,5.7463893 l 0.00253,-0.1857181"
       id="path9"
       style="fill:none;stroke:#00ff64;stroke-width:0.0637753;stroke-linecap:round;stroke-linejoin:round" />
    <path
       class="cls-5"
       d="m 7.2082078,6.2536371 c 0,0.1991999 -0.1253424,0.3783933 -0.3139295,0.4426421 -0.1515861,0.05163 -0.3128528,0.077515 -0.4840143,0.077515 -0.2500406,0 -0.4797136,-0.055358 -0.689167,-0.1658554 C 5.5675024,6.5269094 5.4732798,6.3652846 5.4732798,6.1916123"
       id="path10"
       style="fill:none;stroke:#00ff64;stroke-width:0.0637753;stroke-linecap:round;stroke-linejoin:round" />
    <g
       id="g13"
       transform="matrix(0.0071706,0,0,0.0071706,-15.832306,-10.935091)"
       style="stroke-width:8.89399">
      <path
         class="cls-5"
         d="m 2962.82,1955.2 c 3.37,-1.18 6.91,-1.78 10.48,-1.77 v 0 c 17.41,0.03 31.5,14.17 31.46,31.58"
         id="path11"
         style="fill:none;stroke:#00ff64;stroke-width:8.89399;stroke-linecap:round;stroke-linejoin:round" />
      <path
         class="cls-5"
         d="m 2935.62,2117.6 c -14.05,3.64 -29.55,-0.16 -40.26,-10.95"
         id="path12"
         style="fill:none;stroke:#00ff64;stroke-width:8.89399;stroke-linecap:round;stroke-linejoin:round" />
      <path
         class="cls-5"
         d="m 2884.91,2128.24 57.96,-150.22 c 4.41,-11.43 11.1,-19.41 22.6,-23.63 v 0 l -147.64,51.59 c -18.79,6.58 -26.51,28.97 -15.78,45.73 l 51.03,79.73 c 7.92,12.38 26.55,10.5 31.84,-3.21 z"
         id="path13"
         style="fill:none;stroke:#00ff64;stroke-width:8.89399;stroke-linecap:round;stroke-linejoin:round" />
    </g>
    <path
       class="cls-5"
       d="m 7.3364905,3.0848754 c -0.024166,-0.00846 -0.049551,-0.012763 -0.075148,-0.012685 v 0 C 7.136502,3.0723464 7.0208406,3.1933017 7.0210555,3.318142"
       id="path14"
       style="fill:none;stroke:#00ff64;stroke-width:0.0637753;stroke-linecap:round;stroke-linejoin:round" />
    <path
       class="cls-5"
       d="m 7.4997655,4.2392726 c 0.1046911,0.04008 0.2265904,0.018859 0.3114187,-0.059661"
       id="path15"
       style="fill:none;stroke:#00ff64;stroke-width:0.0637753;stroke-linecap:round;stroke-linejoin:round" />
    <path
       class="cls-5"
       d="M 7.8950808,4.3256782 7.4794729,3.248509 C 7.4478506,3.1665496 7.4028178,3.1105459 7.3203554,3.0803593 v 0 l 1.0557289,0.3686396 c 0.1347361,0.047183 0.190093,0.2077331 0.1131529,0.3279125 L 8.1233203,4.348623 C 8.0665309,4.4373952 7.9329404,4.423914 7.8950089,4.3256057 Z"
       id="path16"
       style="fill:none;stroke:#00ff64;stroke-width:0.0637753;stroke-linecap:round;stroke-linejoin:round" />
    <path
       class="cls-5"
       d="M 7.3863976,3.913726 7.2017544,3.5664542 C 7.1238095,3.4198143 6.9959585,3.3099606 6.8449443,3.2519514 6.7849979,3.2289329 6.7214677,3.2138032 6.6557853,3.2081384 6.4586645,3.1912164 6.2581742,3.1906428 6.056394,3.2073609 5.8275797,3.2264333 5.6242929,3.3612408 5.5159461,3.5636678 L 5.3285058,3.9140235 C 5.2255351,4.1065549 5.1917624,4.3285559 5.2328496,4.5429574 L 5.345499,5.1309477 c 0.031192,0.1627003 0.1039743,0.3135697 0.210242,0.4384097 0.040587,0.047684 0.097378,0.132872 0.1283545,0.1872972 l 3.116e-4,4.671e-4 c 0.01979,0.034708 0.031764,0.072998 0.03829,0.1124361 0.00818,0.049333 0.022658,0.096085 0.042377,0.1391811 0.074001,0.2572803 0.3107025,0.3254741 0.5917899,0.3259759 0.3002328,6.479e-4 0.5507734,-0.093147 0.6066339,-0.3771028 0.00746,-0.022157 0.0137,-0.045033 0.018429,-0.06855 0.00904,-0.044963 0.022016,-0.088987 0.042236,-0.1301462 C 7.0542062,5.697749 7.092067,5.6406004 7.1376734,5.589904 7.2528319,5.4620519 7.3317822,5.3048009 7.3649806,5.1344263 L 7.4802132,4.543352 C 7.5220189,4.3288068 7.4888948,4.1064471 7.3862775,3.9134857 Z M 6.9758808,5.9146842 c 0,0 0,0 0,0 9.424e-4,-0.00359 0.00177,-0.00717 0.00271,-0.010755 -9.423e-4,0.00359 -0.00188,0.00717 -0.00271,0.010831 z m 0.010396,-0.050841 c -0.00141,0.00838 -0.00289,0.016633 -0.00459,0.024878 0.00165,-0.00825 0.00324,-0.016491 0.00459,-0.024878 0.00177,-0.011467 0.0033,-0.023159 0.00442,-0.034921 -0.00112,0.011768 -0.00265,0.023377 -0.00442,0.034921 z"
       id="path17"
       style="fill:none;stroke:#00ff64;stroke-width:0.0637753;stroke-linecap:round;stroke-linejoin:round" />
    <path
       class="cls-1"
       d="m 6.8361255,4.221632 h 3.121e-4 c 0.091138,1.279e-4 0.1648518,0.074216 0.1647087,0.1653542 -1.278e-4,0.091066 -0.074001,0.1647087 -0.1649955,0.1647087 -6.42e-5,0 -1.561e-4,0 -3.116e-4,0 C 6.7447012,4.5515671 6.6709869,4.4774793 6.67113,4.3863413 6.6712578,4.2952745 6.7451293,4.221632 6.8361255,4.221632"
       id="path18"
       style="fill:#00ff64;stroke-width:0.0637753" />
    <path
       class="cls-1"
       d="M 5.688398,4.3838322 C 5.6885258,4.2926922 5.762614,4.2189781 5.8537522,4.2191218 5.9448902,4.2192496 6.0186045,4.2933378 6.0184608,4.384476 6.018333,4.4756152 5.9442453,4.5493295 5.8531073,4.5491864 5.7619692,4.5490586 5.6882549,4.4749703 5.688398,4.3838322 Z"
       id="path19"
       style="fill:#00ff64;stroke-width:0.0637753" />
    <path
       class="cls-1"
       d="m 6.4562274,5.5813938 0.094365,-0.082965 c 0.063459,-0.055788 0.10892,-0.1291408 0.1305767,-0.2108151 v 0 C 6.7127914,5.1686548 6.6232313,5.051988 6.5001098,5.0517012 L 6.2106324,5.0510533 C 6.0875139,5.0508972 5.9975232,5.1671446 6.028715,5.2862486 v 0 c 0.021368,0.081744 0.066544,0.1553156 0.129788,0.2113176 l 0.094078,0.083321 c 0.058085,0.051412 0.1453483,0.05163 0.2035742,3.121e-4 z"
       id="path20"
       style="fill:#00ff64;stroke-width:0.0637753" />
    <path
       class="cls-5"
       d="m 7.9335859,7.9816818 c 0,0.1713783 0.047472,0.3096983 0.074646,0.4044951 l 0.050552,0.1760383 c 0.1007455,0.3507854 0.093862,0.7237295 -0.01979,1.0705711 L 7.8684772,10.1533 c -0.1354523,0.413386 -0.1061959,0.862051 0.079737,1.253207 0.023877,0.05026 0.038507,0.104476 0.043956,0.159833 l 0.022587,0.231466 H 7.6395209 c -0.1854313,0 -0.3491381,-0.121183 -0.4032034,-0.298584 l -0.023948,-0.07837 c -0.020149,-0.06597 -0.028035,-0.135023 -0.023306,-0.20379 L 7.3644564,8.6469705"
       id="path21"
       style="fill:none;stroke:#00ff64;stroke-width:0.0637753;stroke-linecap:round;stroke-linejoin:round" />
    <path
       class="cls-5"
       d="m 4.6522462,8.2139382 c 0.026816,0.5334933 0.03836,1.1518868 0.1839966,1.6845184 l 0.1249136,0.3811894 c 0.1191022,0.363407 0.1177405,0.755496 -0.00371,1.118041 l -0.042236,0.126059 c -0.045175,0.134737 0.05507,0.27406 0.1971908,0.27406 h 0.3259771 c 0.1059096,0 0.1951123,-0.07909 0.2079468,-0.184213 l 0.022375,-0.183996 c 0.00501,-0.04116 0.00524,-0.08275 6.479e-4,-0.12398 L 5.4018137,8.8896241"
       id="path22"
       style="fill:none;stroke:#00ff64;stroke-width:0.0637753;stroke-linecap:round;stroke-linejoin:round" />
    <path
       class="cls-5"
       d="m 5.610813,5.6419851 0.3043191,0.1839983 c 0.085618,0.060734 0.1798389,0.067404 0.2567084,0.035998 l 0.1291431,-0.046753 c 0.034561,-0.012481 0.072422,-0.012327 0.1069133,4.676e-4 L 6.5343142,5.862667 C 6.6110402,5.89436 6.7052608,5.888052 6.7911657,5.827605 L 7.080715,5.6540044"
       id="path23"
       style="fill:none;stroke:#00ff64;stroke-width:0.0637753;stroke-linecap:round;stroke-linejoin:round" />
    <path
       class="cls-4"
       d="M 5.9356397,3.9966902 C 5.9253856,3.9973381 5.8253575,3.9608391 5.7492048,3.9811235 5.6680335,4.0027803 5.610813,4.0811534 5.610813,4.0811534"
       id="path24"
       style="fill:#ffffff;stroke:#00ff64;stroke-width:0.0637753;stroke-linecap:round;stroke-linejoin:round" />
    <path
       class="cls-4"
       d="m 6.7628417,3.9966902 c 0.010254,6.479e-4 0.1102835,-0.035851 0.1864349,-0.015567 0.081173,0.021657 0.1383931,0.1000299 0.1383931,0.1000299"
       id="path25"
       style="fill:#ffffff;stroke:#00ff64;stroke-width:0.0637753;stroke-linecap:round;stroke-linejoin:round" />
    <path
       class="cls-5"
       d="m 6.7148694,5.8886549 v 0.00796 C 6.7055517,6.0868541 6.5486553,6.1018406 6.3561969,6.1014825 6.1648858,6.1011704 6.0092109,6.0873647 5.9989568,5.8986251"
       id="path26"
       style="fill:none;stroke:#00ff64;stroke-width:0.0637753;stroke-linecap:round;stroke-linejoin:round" />
    <circle
       class="cls-5"
       cx="6.3772745"
       cy="7.2626138"
       r="0.48882011"
       id="circle26"
       style="fill:none;stroke:#00ff64;stroke-width:0.0637753;stroke-linecap:round;stroke-linejoin:round" />
    <text
       class="cls-3"
       id="text35"
       x="6.0741572"
       y="7.583643"
       style="font-weight:700;font-size:0.850333px;font-family:EuclidCircularB-Bold, 'Euclid Circular B';letter-spacing:-0.03em;fill:#00ff64;stroke-width:0.0637753;stroke-dasharray:none"><tspan
         x="6.0741572"
         y="7.583643"
         id="tspan35"
         style="font-size:0.850333px;stroke-width:0.0637753;stroke-dasharray:none">T</tspan></text>
    <path
       style="fill:#1c1a54;fill-opacity:1;stroke:none;stroke-width:0.0135111;stroke-dasharray:none"
       d="m 4.5850337,11.506736 c -0.0137,-0.01879 -0.048891,-0.05156 -0.078224,-0.07281 -0.048491,-0.03513 -0.0508,-0.03944 -0.02545,-0.04748 0.042677,-0.01354 0.1833934,-0.149622 0.2207264,-0.21345 0.1113966,-0.19045 0.1018163,-0.53221 -0.022994,-0.820215 C 4.525194,9.9976572 4.1753992,9.6917502 3.855763,9.6327581 l -0.089826,-0.01658 0.040257,-0.06067 C 3.8641554,9.468156 3.8911218,9.3760332 3.974741,8.9796937 4.0496002,8.6248755 4.097764,8.4468706 4.1650455,8.276357 4.2293361,8.1134247 4.3710516,7.8470712 4.4810317,7.6824656 4.5847362,7.5272531 4.8039213,7.2523476 4.815076,7.2635023 c 0.003,0.003 -0.016851,0.059429 -0.044156,0.125353 -0.061305,0.147994 -0.1191534,0.3736514 -0.1414581,0.5518024 -0.037877,0.3025268 0.028848,1.3027886 0.1154264,1.7303976 0.01903,0.093971 0.074155,0.2952011 0.1225071,0.4471737 0.1245521,0.391484 0.1339675,0.44168 0.1339504,0.714203 -1.41e-5,0.251738 -0.00869,0.308975 -0.08353,0.550575 l -0.049174,0.158755 -0.1293593,-4.67e-4 c -0.1225836,-4.68e-4 -0.1306639,-0.0022 -0.1542536,-0.0346 z"
       id="path62" />
    <path
       style="fill:#1c1a54;fill-opacity:1;stroke:none;stroke-width:0.0135111;stroke-dasharray:none"
       d="m 3.3568552,11.734227 c -0.020396,-0.01264 -0.046936,-0.04376 -0.058979,-0.06914 -0.049457,-0.104217 0.033719,-0.203943 0.195302,-0.234161 0.1096744,-0.02051 0.1101762,-0.02074 0.1101762,-0.05062 0,-0.03637 -0.045257,-0.04632 -0.1271854,-0.02797 -0.036057,0.0081 -0.06754,0.0127 -0.069967,0.01028 -0.00241,-0.0024 -0.053297,-0.09535 -0.1130434,-0.206504 C 3.1387043,10.868786 3.0906047,10.708326 3.0901701,10.478958 3.0897024,10.210372 3.1620503,10.008694 3.3072019,9.8743108 3.4484903,9.7435021 3.5744106,9.6980017 3.7712881,9.7066114 c 0.1085459,0.00477 0.1363799,0.011515 0.2299145,0.055941 0.4042212,0.1919625 0.6639387,0.5694226 0.7042626,1.0235336 0.019601,0.220777 -0.075726,0.421041 -0.2488732,0.522828 -0.061608,0.03622 -0.067216,0.03694 -0.2857733,0.03694 H 3.9478871 v 0.03378 0.03378 l 0.1959098,0.0072 c 0.1676559,0.0062 0.2041396,0.01153 0.2529737,0.03725 0.1076018,0.05665 0.2052722,0.184445 0.2061044,0.269678 l 3.116e-4,0.0304 -0.6046191,-3.11e-4 c -0.5453477,-3.12e-4 -0.6082548,-0.0026 -0.6416982,-0.02335 z"
       id="path63" />
    <path
       style="fill:#1c1a54;fill-opacity:1;stroke:none;stroke-width:0.0135111;stroke-dasharray:none"
       d="M 2.9142926,11.453429 C 2.5566502,11.396881 2.2253953,11.231756 1.9664565,10.980953 1.8381768,10.856705 1.7312187,10.726878 1.7515485,10.720102 c 0.02072,-0.0069 0.3125925,0.02244 0.3926136,0.03948 0.033442,0.0071 0.14896,0.05768 0.2567102,0.112369 0.1077514,0.05469 0.249484,0.118283 0.3149637,0.141332 0.1220619,0.04297 0.3549731,0.09595 0.4235103,0.09635 0.034885,1.56e-4 0.045534,0.01343 0.1160654,0.144287 l 0.077657,0.144069 -0.043879,0.03757 c -0.04028,0.03448 -0.052749,0.0375 -0.1519661,0.0368 -0.059449,-4.67e-4 -0.1597677,-0.0089 -0.2229316,-0.01892 z"
       id="path64" />
    <path
       style="fill:#1c1a54;fill-opacity:1;stroke:none;stroke-width:0.0135111;stroke-dasharray:none"
       d="m 5.0224008,11.728187 c -0.026987,-0.01819 -0.054911,-0.05302 -0.066125,-0.08248 -0.0184,-0.04834 -0.016839,-0.05925 0.029944,-0.209206 0.079484,-0.254781 0.093837,-0.346884 0.094125,-0.604072 C 5.0806562,10.557663 5.0638355,10.467714 4.9426654,10.096077 4.7913578,9.632016 4.7466137,9.3351274 4.7064565,8.5287965 4.6820786,8.0392934 4.7022158,7.8244638 4.7988708,7.5424912 4.8869232,7.2856379 4.9589313,7.1549458 5.1580375,6.8906182 5.2476153,6.7716968 5.3216659,6.6542803 5.3785301,6.5410001 l 0.085618,-0.1705607 0.027488,0.055717 c 0.05342,0.1082803 0.1189438,0.1672089 0.2648057,0.2381614 0.075368,0.036658 0.1932329,0.080686 0.2619244,0.097834 l 0.1248919,0.031175 -0.047684,0.025679 c -0.063308,0.034096 -0.1452965,0.1246239 -0.1864908,0.2059166 -0.1330887,0.2626377 -0.024478,0.5840832 0.2413914,0.7144149 0.073762,0.036157 0.093108,0.039597 0.2229221,0.039597 0.1329921,0 0.1478821,-0.00283 0.2311067,-0.043791 0.1773782,-0.087323 0.282571,-0.24729 0.2930307,-0.4456152 0.00948,-0.1796005 -0.056713,-0.3321214 -0.1897685,-0.4372937 l -0.06578,-0.051995 0.03783,-0.0084 c 0.1249914,-0.027747 0.2436731,-0.064589 0.2999589,-0.093111 0.076156,-0.03859 0.195266,-0.1637533 0.2194313,-0.230583 0.00936,-0.025891 0.020361,-0.046995 0.024437,-0.046906 0.00406,9.07e-5 0.036499,0.05633 0.072033,0.1249773 0.035539,0.068647 0.1105284,0.1856109 0.1666458,0.2599218 0.1876959,0.2485493 0.2615739,0.3816958 0.3361558,0.6058337 0.059488,0.1787776 0.084528,0.3211179 0.1002048,0.5696266 0.010878,0.1724896 0.021027,0.2318358 0.068158,0.398577 0.1073062,0.3796395 0.1135099,0.4162422 0.114507,0.6755516 0.00112,0.2910623 -0.010054,0.3480025 -0.1563528,0.7971505 C 7.7753031,10.312423 7.7639287,10.362773 7.75514,10.604679 c -0.010849,0.298601 0.024714,0.502579 0.1327406,0.761437 0.050099,0.120051 0.07864,0.245314 0.079265,0.347909 l 3.116e-4,0.04391 H 7.7720548 c -0.163341,0 -0.207442,-0.0045 -0.2687736,-0.02745 -0.1322176,-0.04947 -0.2242451,-0.180005 -0.2668018,-0.378441 -0.010719,-0.05002 0.00589,-0.351215 0.076319,-1.3828682 0.049516,-0.7254028 0.086546,-1.328004 0.082284,-1.3391133 -0.00424,-0.011114 -0.019825,-0.020202 -0.034585,-0.020202 -0.030868,0 -0.035922,0.021987 -0.047849,0.2080982 -0.011873,0.18525 -0.080556,0.4252626 -0.1763426,0.6161844 C 7.0036194,9.6986154 6.7159543,9.9443935 6.4474663,10.022677 6.2700787,10.074395 6.0387912,10.041978 5.8529794,9.9393507 5.7526286,9.8839218 5.6038771,9.7273511 5.5526106,9.6231866 5.5122361,9.5411541 5.5070766,9.5135981 5.4743618,9.2051727 5.4550963,9.0235668 5.4362901,8.8700481 5.4325619,8.8640194 c -0.00868,-0.014041 -0.055576,-0.014289 -0.064199,-3.116e-4 -0.00359,0.00583 0.054215,0.557602 0.128507,1.2261272 0.1147002,1.03214 0.1339286,1.23588 0.1274693,1.350608 -0.00955,0.16959 -0.023989,0.220998 -0.076121,0.27099 l -0.04147,0.03977 -0.2188005,0.0042 c -0.2103139,0.0041 -0.2206099,0.003 -0.2655131,-0.02723 z"
       id="path65" />
    <path
       style="fill:#1c1a54;fill-opacity:1;stroke:none;stroke-width:0.0135111;stroke-dasharray:none"
       d="m 5.6571721,11.699971 c 0.014383,-0.03251 0.032547,-0.122983 0.04137,-0.206044 0.015302,-0.144064 0.013482,-0.16822 -0.067058,-0.891186 -0.045534,-0.408707 -0.086105,-0.7647154 -0.090158,-0.7911246 l -0.00737,-0.04802 0.1122071,0.1088186 c 0.1675154,0.162462 0.3316775,0.235645 0.5549148,0.247381 l 0.1319602,0.0069 0.074518,0.08049 c 0.1406135,0.151879 0.2087584,0.313731 0.2087584,0.495822 0,0.26561 -0.1427721,0.491993 -0.3879224,0.6151 -0.038725,0.01945 -0.074211,0.04151 -0.078852,0.04901 -0.018046,0.0292 0.024372,0.053 0.094469,0.053 0.181193,0 0.3343158,0.121979 0.3773761,0.300621 l 0.00896,0.03715 H 6.1309382 5.6315321 Z"
       id="path66" />
    <path
       style="fill:#1c1a54;fill-opacity:1;stroke:none;stroke-width:0.0135111;stroke-dasharray:none"
       d="M 6.147945,6.7126746 C 5.8555068,6.6570396 5.6373659,6.5376435 5.5617439,6.391834 5.5116807,6.2953103 5.5064034,6.2331153 5.5365356,6.0950556 c 0.01516,-0.069477 0.031758,-0.1931705 0.036882,-0.2748755 l 0.00931,-0.1485535 0.043054,0.067347 c 0.024183,0.03783 0.052561,0.1092862 0.064743,0.1630224 0.011921,0.052619 0.044232,0.1406217 0.071789,0.1955564 0.059539,0.1186911 0.1379849,0.1854236 0.2730337,0.2322628 0.077752,0.026969 0.1141613,0.030462 0.3175105,0.030462 0.2491194,0 0.320817,-0.013965 0.4323526,-0.084195 0.1268785,-0.079893 0.1719843,-0.1495677 0.2271464,-0.3508756 0.050328,-0.1836631 0.055535,-0.1859914 0.074584,-0.033348 0.00915,0.073332 0.031988,0.1904871 0.050746,0.2603424 0.036593,0.1362663 0.035427,0.1794526 -0.0075,0.277285 C 7.0441958,6.6255195 6.8381585,6.7158 6.45418,6.725699 6.312438,6.729349 6.2134694,6.7250511 6.1479396,6.712671 Z"
       id="path67" />
    <path
       style="fill:#1c1a54;fill-opacity:1;stroke:none;stroke-width:0.0135111;stroke-dasharray:none"
       d="M 6.2975522,7.7045995 C 6.2050989,7.6856167 6.1212554,7.6382963 6.0554699,7.5679657 5.9615908,7.4676019 5.9340195,7.3971853 5.9344011,7.2587592 5.9347127,7.154332 5.9388774,7.1362114 5.9804122,7.0589956 6.0323248,6.9625173 6.0863967,6.9099732 6.1878413,6.8574275 6.2478359,6.8263529 6.2752988,6.8208754 6.3731206,6.8204749 6.523659,6.819827 6.6021293,6.8536698 6.7029867,6.9626109 6.8656651,7.1383235 6.8661829,7.3883718 6.7042236,7.5676247 6.610385,7.6714912 6.4308359,7.7319658 6.2975387,7.7045983 Z M 6.4511127,7.343203 6.4547643,7.0966267 h 0.094272 0.094273 V 7.0290707 6.9615154 H 6.3663332 6.0893569 v 0.067555 0.067556 h 0.094577 0.094577 v 0.2505984 0.2505995 l 0.084444,-0.00401 0.084445,-0.00401 z"
       id="path68" />
    <path
       style="fill:#1c1a54;fill-opacity:1;stroke:none;stroke-width:0.0135111;stroke-dasharray:none"
       d="M 6.008321,5.8305927 C 5.9971775,5.8265288 5.9083329,5.7751462 5.8108981,5.7163885 5.6449891,5.6163409 5.6290053,5.6029363 5.5591506,5.5052735 5.4255731,5.318517 5.4161653,5.2911313 5.3237497,4.820015 5.2321034,4.3528242 5.2373176,4.1938234 5.3519324,3.9607407 5.4994823,3.6606823 5.5839661,3.5211143 5.6702439,3.4348881 5.8374457,3.2677857 5.9379727,3.2393912 6.3596053,3.2401766 c 0.3329211,6.243e-4 0.4130883,0.012887 0.5457765,0.083477 0.1323466,0.070414 0.2183264,0.1760785 0.3550131,0.4362998 0.1576668,0.3001579 0.1821283,0.371362 0.1904059,0.5542424 0.00594,0.131267 7.656e-4,0.171896 -0.064194,0.5066636 C 7.2967573,5.2836771 7.2710042,5.3549277 7.127447,5.5378429 7.0730607,5.6071393 7.0337392,5.6377261 6.8864538,5.7253032 6.6755915,5.8506863 6.639758,5.858303 6.499836,5.8074859 6.3797672,5.7638779 6.3266825,5.7636658 6.2084355,5.8063668 6.1190738,5.8386017 6.0524255,5.8466824 6.008318,5.8306387 Z M 6.4489853,5.5946971 C 6.5332965,5.5314819 6.6200802,5.438528 6.6508703,5.3784622 6.7002915,5.2820569 6.7046971,5.2229316 6.6677504,5.152035 6.6183115,5.0571663 6.5775318,5.0429478 6.3549041,5.0429478 c -0.2083096,0 -0.2649759,0.017251 -0.310643,0.094557 -0.030285,0.051271 -0.027959,0.1554039 0.00512,0.2282595 C 6.0768161,5.4262263 6.2347005,5.5907455 6.284759,5.61103 6.336648,5.632057 6.4087503,5.624883 6.449013,5.594698 Z M 5.9267326,4.536554 C 6.0148863,4.490967 6.04763,4.3889187 6.0022557,4.3011761 5.9454545,4.191332 5.7610027,4.1902318 5.7045502,4.2994091 c -0.042801,0.082773 -0.018989,0.1735274 0.059388,0.2263459 0.052826,0.035598 0.1077997,0.03925 0.1627939,0.010814 z m 0.9864219,0.00271 C 6.9315125,4.529974 6.9609265,4.501187 6.9785255,4.475285 7.0257379,4.4058006 7.0141586,4.322983 6.9488702,4.2631474 6.8382858,4.1618053 6.6703637,4.2368789 6.6703637,4.38766 c 0,0.1287362 0.1289087,0.209229 0.2427926,0.1516033 z M 5.6580556,4.0891335 c 0.059558,-0.063752 0.1008032,-0.076789 0.2104293,-0.066516 l 0.099302,0.00931 v -0.033807 c 0,-0.029679 -0.00833,-0.035598 -0.06822,-0.048444 -0.094247,-0.020214 -0.1323572,-0.018052 -0.1966407,0.011143 -0.093521,0.042471 -0.1591935,0.1346142 -0.1100702,0.1544363 0.028236,0.011391 0.031316,0.01016 0.065199,-0.026115 z m 1.4581148,0.014866 c 0.022858,-0.027546 -0.00968,-0.076092 -0.083845,-0.1250691 -0.048491,-0.032023 -0.069345,-0.037006 -0.1516704,-0.036228 -0.1046628,9.423e-4 -0.1604622,0.021892 -0.1532925,0.057431 0.00395,0.019436 0.019696,0.022069 0.1087097,0.018135 0.1104053,-0.00489 0.1612042,0.013511 0.2158444,0.078127 0.027965,0.033071 0.041765,0.034703 0.064253,0.0076 z"
       id="path69" />
    <path
       style="fill:#1c1a54;fill-opacity:1;stroke:none;stroke-width:0.0135111;stroke-dasharray:none"
       d="m 6.2482417,6.0559197 c -0.112084,-0.00829 -0.1642275,-0.033743 -0.1956265,-0.095524 -0.01595,-0.031381 -0.014542,-0.032771 0.041653,-0.041164 0.031987,-0.00477 0.1027816,-0.024784 0.1573175,-0.044456 l 0.099159,-0.035769 0.119584,0.041081 c 0.065773,0.022593 0.1376857,0.041081 0.1598095,0.041081 0.092105,0 0.00554,0.1141076 -0.096067,0.1266352 -0.1126058,0.013882 -0.181408,0.015838 -0.2858293,0.00812 z"
       id="path70" />
    <path
       style="fill:#1c1a54;fill-opacity:1;stroke:none;stroke-width:0.0135111;stroke-dasharray:none"
       d="M 6.1636984,6.2806542 C 6.1116798,6.270618 6.046991,6.2531017 6.0199462,6.2417226 5.9541578,6.2140465 5.8637177,6.1306335 5.8319228,6.0683089 5.803428,6.0124501 5.7344909,5.7851618 5.7433563,5.7762947 c 0.00306,-0.00306 0.053055,0.023777 0.1110626,0.05967 0.094149,0.058256 0.10663,0.070833 0.1162569,0.1171704 0.027293,0.1313541 0.1042458,0.1720797 0.3422258,0.1811087 0.2171095,0.00825 0.3064824,-0.010301 0.3736932,-0.07751 0.035303,-0.035303 0.052996,-0.066975 0.059245,-0.1060516 0.00835,-0.052219 0.015349,-0.059506 0.1115551,-0.1162039 0.056454,-0.033271 0.1041345,-0.059 0.1059562,-0.057178 0.00183,0.00183 -0.00882,0.054793 -0.023659,0.1177169 -0.06598,0.2798907 -0.2077424,0.3831635 -0.5463072,0.3979739 -0.082751,0.00359 -0.1717622,-0.00112 -0.2296872,-0.012327 z"
       id="path71" />
    <path
       style="fill:#1c1a54;fill-opacity:1;stroke:none;stroke-width:0.0135111;stroke-dasharray:none"
       d="M 7.9632222,4.3505072 C 7.9506475,4.341219 7.842641,4.0812989 7.7232237,3.7729093 7.6038052,3.46452 7.5031551,3.2054022 7.4995553,3.1970931 c -0.00603,-0.013916 0.8410972,0.2739548 0.901851,0.3064696 0.042501,0.022744 0.079328,0.095182 0.079385,0.1561366 4.36e-5,0.048573 -0.025061,0.095118 -0.196775,0.3647978 C 8.175763,4.1945137 8.077321,4.3412178 8.0652575,4.3505072 c -0.012062,0.00929 -0.034809,0.016886 -0.050546,0.016886 -0.015738,0 -0.038908,-0.0076 -0.051489,-0.016886 z"
       id="path72" />
    <path
       style="fill:#1c1a54;fill-opacity:1;stroke:none;stroke-width:0.0135111;stroke-dasharray:none"
       d="m 7.5415896,4.2084348 c -0.00756,-0.00548 -0.02767,-0.058568 -0.044692,-0.118015 C 7.4520353,3.933746 7.2241727,3.505696 7.1331171,3.4070421 7.0874594,3.3575743 7.0621846,3.318304 7.0621846,3.2968378 c 0,-0.076075 0.1150323,-0.1860145 0.194531,-0.1859194 0.0512,6.23e-5 0.1201323,0.040291 0.1517652,0.088568 0.025067,0.038252 0.3694968,0.9207149 0.3696805,0.9471488 3.116e-4,0.042265 -0.1935103,0.092894 -0.2365688,0.061799 z"
       id="path73" />
    <path
       style="fill:#1c1a54;fill-opacity:1;stroke:none;stroke-width:0.0135111;stroke-dasharray:none"
       d="M 5.042276,4.2000489 C 4.9563875,4.1626193 4.9530562,4.179576 5.1432606,3.6860037 5.239789,3.4355161 5.331516,3.2126672 5.3470998,3.1907833 5.4229174,3.0843066 5.5752327,3.0881962 5.6433093,3.1983411 5.6868584,3.2688078 5.6789131,3.3023932 5.5989886,3.3855696 5.5467874,3.4398964 5.4904327,3.5288419 5.390626,3.7144266 5.2666288,3.9449908 5.2422315,4.0041202 5.1894955,4.20188 5.1836055,4.223984 5.0946595,4.222877 5.042273,4.20005 Z"
       id="path74" />
    <path
       style="fill:#1c1a54;fill-opacity:1;stroke:none;stroke-width:0.0135111;stroke-dasharray:none"
       d="M 4.6889096,4.3570549 C 4.6803399,4.3515774 4.5838598,4.2078128 4.474527,4.0375377 4.3382778,3.8253414 4.2736332,3.7122339 4.2690427,3.6779989 c -0.00785,-0.058559 0.024719,-0.1373492 0.06845,-0.1655755 0.034927,-0.022543 0.8871524,-0.3230753 0.9005152,-0.3175618 0.016338,0.00675 -0.4262967,1.1348228 -0.4529162,1.154288 -0.027228,0.019913 -0.071592,0.023559 -0.096182,0.0079 z"
       id="path75" />
  </g>
</svg>
