<?xml version="1.0" encoding="UTF-8"?>
<svg id="Logo" xmlns="http://www.w3.org/2000/svg" viewBox="0 0 3510.32 3119.14">
  <defs>
    <style>
      .cls-1 {
        font-size: 181.9px;
      }

      .cls-1, .cls-2 {
        font-family: Arial-BoldMT, Arial;
      }

      .cls-1, .cls-2, .cls-3 {
        font-weight: 700;
      }

      .cls-1, .cls-2, .cls-3, .cls-4 {
        isolation: isolate;
      }

      .cls-1, .cls-2, .cls-3, .cls-5 {
        fill: #00ff63;
      }

      .cls-2 {
        font-size: 110.9px;
      }

      .cls-3 {
        font-family: AmericanTypewriter-Bold, 'American Typewriter';
        font-size: 70px;
      }

      .cls-6 {
        fill: none;
        stroke: #00ff63;
        stroke-linecap: round;
        stroke-miterlimit: 10;
        stroke-width: 21px;
      }
    </style>
  </defs>
  <g id="Tim">
    <path class="cls-6" d="M2756.66,3006.69c-39.4-3.4-78.4-15.6-113.9-36.7-14.2-8.4-29.9-14.1-46.4-15.6l-56.4-5.2,16.9,21.5c46.4,59.1,116.8,95.4,191.9,96.4h12.7"/>
    <path class="cls-6" d="M3071.66,3107.09h169.4c0-32.1-26.1-58.2-58.2-58.2h-8.9c30.1-11.1,53.8-36.2,62.4-68.6,9-33.9-.3-69.9-24.5-95.3l-13.2-13.8"/>
    <path class="cls-6" d="M2823.26,2808.89h0c13.8-13.6,23.2-31,27.2-50l16.6-79.4c19.2-91.8,73.2-179.2,144.2-240.5"/>
    <path class="cls-6" d="M2993.36,3075.49c-11.9,1.8-24.6,2.1-38.6.8"/>
    <path class="cls-6" d="M2922.26,3050.29c29.7-11,50.9-39.6,50.9-73.1h0c0-71.4-42.6-132.8-103.9-160.2-52.5-23.5-113.5,6.4-127.6,62.1h0c-10.9,43.1-5.1,88.8,16.3,127.8l24.4,44.5"/>
    <path class="cls-6" d="M2808.06,3048.79c-12.6,0-24.3,4-33.8,10.8-20.6,14.7-9.4,47.4,15.9,47.4h169.4c0-32.1-26.1-58.2-58.2-58.2h-36.3"/>
    <path class="cls-6" d="M3335.36,2707.99s-11.4,56.3-32.3,86.7c-27.3,39.6-71.1,74-119.2,74h0c-48.1,0-91.4-29.3-109.3-74"/>
    <path class="cls-6" d="M3301.76,2252.69l2.4,26.8c5.5,48.9,24.9,95.1,55.9,133.3h0c37.2,45.8,57.5,103,57.5,162.1"/>
    <path class="cls-6" d="M2959.86,2607.29v-3.6c0-67,23.2-131.9,65.6-183.6h0c36.3-44.3,56.8-99.6,58.2-156.9l.4-25.9"/>
    <path class="cls-6" d="M3316.36,2333.89c0,27.8-17.5,52.8-43.8,61.7-21.1,7.2-43.6,10.8-67.5,10.8-34.9,0-66.9-7.7-96.1-23.1-21.4-11.3-34.6-33.8-34.6-58.1"/>
    <g>
      <path class="cls-6" d="M3065.96,1891.99c3.4-1.2,6.9-1.8,10.5-1.8h0c17.4,0,31.5,14.2,31.5,31.6"/>
      <path class="cls-6" d="M3038.76,2054.39c-14.1,3.6-29.6-.2-40.3-10.9"/>
      <path class="cls-6" d="M2988.06,2064.99l58-150.2c4.4-11.4,11.1-19.4,22.6-23.6h0l-147.6,51.6c-18.8,6.6-26.5,29-15.8,45.7l51,79.7c7.9,12.4,26.6,10.5,31.8-3.2h0Z"/>
    </g>
    <path class="cls-6" d="M3334.26,1891.99c-3.4-1.2-6.9-1.8-10.5-1.8h0c-17.4,0-33.5,16.9-33.5,34.3"/>
    <path class="cls-6" d="M3356.96,2052.99c14.6,5.6,31.6,2.6,43.4-8.3"/>
    <path class="cls-6" d="M3412.16,2064.99l-58-150.2c-4.4-11.4-10.7-19.2-22.2-23.4h0l147.2,51.4c18.8,6.6,26.5,29,15.8,45.7l-51,79.7c-7.9,12.4-26.6,10.5-31.8-3.2h0Z"/>
    <path class="cls-6" d="M3341.16,2007.59l-25.8-48.4c-10.9-20.4-28.7-35.8-49.8-43.9-8.4-3.2-17.2-5.3-26.4-6.1-27.5-2.4-55.4-2.4-83.6,0-31.9,2.7-60.3,21.5-75.4,49.7l-26.1,48.9c-14.4,26.9-19.1,57.8-13.3,87.7l15.7,82c4.4,22.7,14.5,43.7,29.3,61.1,5.7,6.6,13.6,18.5,17.9,26.1h0c2.8,4.9,4.4,10.2,5.3,15.8,1.1,6.9,3.2,13.4,5.9,19.4,10.3,35.9,43.3,45.4,82.5,45.5,41.9,0,76.8-13,84.6-52.6,1-3.1,1.9-6.3,2.6-9.6,1.3-6.3,3.1-12.4,5.9-18.1,4.2-8.5,9.5-16.5,15.8-23.6,16.1-17.8,27.1-39.8,31.7-63.5l16.1-82.4c5.8-29.9,1.2-60.9-13.1-87.8h0l.2-.2ZM3283.96,2286.59h0c.1-.5.2-1,.4-1.5-.1.5-.3,1-.4,1.5h0ZM3285.36,2279.49c-.2,1.2-.4,2.3-.6,3.5.2-1.1.4-2.3.6-3.5.2-1.6.5-3.2.6-4.9-.2,1.6-.4,3.3-.6,4.9Z"/>
    <path class="cls-5" d="M3264.46,2050.49h0c12.7,0,23,10.4,23,23.1s-10.3,23-23,23h0c-12.7,0-23-10.4-23-23.1s10.3-23,23-23"/>
    <path class="cls-5" d="M3104.36,2073.09c0-12.7,10.4-23,23.1-23s23,10.4,23,23.1-10.4,23-23.1,23-23-10.4-23-23.1Z"/>
    <path class="cls-5" d="M3211.46,2240.09l13.2-11.6c8.9-7.8,15.2-18,18.2-29.4h0c4.4-16.6-8.1-32.9-25.2-32.9h-40.4c-17.2-.1-29.7,16.1-25.4,32.7h0c3,11.4,9.3,21.7,18.1,29.5l13.1,11.6c8.1,7.2,20.3,7.2,28.4,0h0v.1Z"/>
    <path class="cls-6" d="M3417.46,2574.89c0,23.9,6.6,43.2,10.4,56.4l7.1,24.6c14.1,48.9,13.1,100.9-2.8,149.3l-23.8,72.6c-18.9,57.6-14.8,120.2,11.1,174.8,3.3,7,5.4,14.6,6.1,22.3l3.1,32.3h-52.3c-25.9,0-48.7-16.9-56.2-41.6l-3.3-10.9c-2.8-9.2-3.9-18.8-3.2-28.4l24.5-358.4"/>
    <path class="cls-6" d="M2959.86,2607.29c3.7,74.4,5.4,160.6,25.7,234.9l17.4,53.2c16.6,50.7,16.4,105.4-.5,155.9l-5.9,17.6c-6.3,18.8,7.7,38.2,27.5,38.2h45.5c14.8,0,27.2-11,29-25.7l3.1-25.7c.7-5.7.7-11.5,0-17.3l-37.3-336.9"/>
    <path class="cls-6" d="M3093.56,2248.59l42.4,25.7c11.9,8.5,25.1,9.4,35.8,5l18-6.5c4.8-1.7,10.1-1.7,14.9,0l17.6,6.6c10.7,4.4,23.8,3.5,35.8-4.9l40.4-24.2"/>
    <path class="cls-6" d="M3138.86,2019.09c-1.4,0-15.4-5-26-2.2-11.3,3-19.3,13.9-19.3,13.9"/>
    <path class="cls-6" d="M3254.26,2019.09c1.4,0,15.4-5,26-2.2,11.3,3,19.3,13.9,19.3,13.9"/>
    <path class="cls-6" d="M3247.56,2282.99v1.1c-1.3,26.5-23.2,28.6-50,28.6s-48.4-2-49.8-28.3"/>
    <circle class="cls-6" cx="3200.46" cy="2474.59" r="68.2"/>
    <g class="cls-4">
      <g class="cls-4">
        <text class="cls-2" transform="translate(3166.26 2519.39)"><tspan x="0" y="0">T</tspan></text>
      </g>
    </g>
  </g>
  <g id="Kim">
    <path class="cls-6" d="M360.96,815.99c-52.5,24.3-89.2,51.4-113.2,71.8-18.5,15.8-18.2,18-77.9,77.9-53.3,53.5-60,58.2-85.7,85.7-21.8,23.4-46.3,51.3-71.9,84,46.1,97.7,92.3,195.4,138.4,293.1"/>
    <path class="cls-6" d="M398.36,1079.39c-41.4,20.5-83.5,40.8-126.3,61.1-20,9.4-39.9,18.8-59.8,27.9,23.3,46.8,44.5,83.6,60.1,109.1,19.9,32.7,29,44.7,28.3,64.6-1.5,37.2-35.7,67.8-65.3,81.2-37.3,16.9-72.5,8.8-84.8,5.3"/>
    <path class="cls-6" d="M365.56,1673.39c7.3-90.2-1.7-161-11.7-209.8-14.5-70.6-32.4-102.7-40.9-172.8-8.7-72-1.2-132.6,6.7-173.1"/>
    <path class="cls-6" d="M727.96,806.79c85,24.2,157.8,33,210.5,36.3,71.2,4.4,128.7,7.1,197.7-16.2,66.1-22.3,112-58.4,138.9-83.3"/>
    <path class="cls-6" d="M1362.46,997.59c-14.9-7.6-65.9-35.9-94.3-99.5-27.3-61.3-16.5-116.7-12.5-133.6"/>
    <path class="cls-6" d="M936.26,1008.59c5-.5,10-1,14.9-1.5,77.1,2.1,146,3.1,205.1,3.5,0,0,84.5.5,149.8-5.4,3.1-.3,5.8-.5,8.1-.8,23.3-2.3,39.2-4.3,52.7-6.3"/>
    <path class="cls-6" d="M928.56,1013.39c-29.1,82.1-58.8,186.5-77.1,304-21.7,138.9-22.8,261.5-16.9,359.2"/>
    <path class="cls-6" d="M940.26,1008.49c-.8-.1-5.3-.6-9.3,2.4-4.5,3.5-4.8,8.7-4.8,9.4"/>
    <path class="cls-6" d="M289.54,1379.59c3.95,3.4,51.78,46.1,42.66,107.7-1.22,8.4-8.61,51.6-46.91,74.9-46.61,28.3-118.86,14.4-139.63-26.2-13.78-26.9-6.99-69.7,15.81-80.2,12.87-5.9,33.03-2.5,40.84,10.1,11.35,18.5-9.52,48.1-18.14,46.8-4.26-.6-9.02-11.6-10.54-21.5"/>
    <path class="cls-6" d="M1331.06,621.59c-.8,9.5-3,23.6-9.7,39-6.5,14.7-12.6,20.3-20.1,31.2-23.9,34.8-26.3,72.2-27.4,89-1.4,21.4-1.8,35,7.1,46.8,7.8,10.3,15.9,9.9,19.2,20.6,2.8,9.5-.7,19.2,2.9,33,.8,3.1,1.9,6.6,1.9,6.6,0,0,2.2,7.4,5.2,14.2,22.3,51.3,70.3,69,70.3,69,54.1,20,102.8-10,108.5-13.6,50.3-32.1,59-90.8,65.6-135.8,5.8-39.1,15.3-104-25.3-142.2-22.3-21-50.3-24.9-58.5-26-44.4-5.7-76.6,17.8-85.4,24.5-12.9,9.8-45.5,34.4-41.6,67,2,16.9,15,30.4,18.1,33.4l.5.5c5.7,5.5,9.6,8.2,12.9,9.9,1.2.6,2.4,1.1,3.5,1.6"/>
    <path class="cls-6" d="M1435.86,654.59c-1.3-29.4-2.8-55-4.1-75.9-2.1-31.6-3-39-7.8-48.7-10.6-21.3-33.7-40.7-61.7-42.9-1.7-.1-38.7-2.6-49.4,17.5-5.5,10.4-1.5,23.6,6.5,50,5,16.4,8.8,22.2,11,37,1.9,12.5,1.4,23,.6,29.9"/>
    <path class="cls-6" d="M1362.46,997.59c15.9.9,48.2,2.4,78.1-11.8,12.5-5.9,22.5-12.9,30.2-19.2"/>
    <path class="cls-6" d="M1551.76,746.99c-29-5.1-90.9-11.1-145.8,23.7-18.5,11.8-53.6,34-52.4,66.5.8,22.5,18.7,38.7,26.4,44.9"/>
    <path class="cls-6" d="M1544.56,838.59c-27.4-6.4-50.1-6.1-65-4.9-15.2,1.3-42.4,3.8-70.1,20.8-11.8,7.2-23.4,14.6-28.3,29-3.9,11.7-3.5,28.7,6.2,37.3,10.2,9.1,26.7,5.2,38.3,2.8,23.4-4.7,57.1-9.1,102.6-7.8"/>
    <path class="cls-6" d="M506.16,356.09c-1.4,0-15.4-5-26-2.2-11.3,3-19.3,14-19.3,14"/>
    <path class="cls-6" d="M638.26,356.09c1.4,0,15.4-5,26-2.2,11.3,3,19.3,14,19.3,14"/>
    <path class="cls-6" d="M836.16,1891.49l110.6,1042.6-202.5,11.5-17.7-386.5c-68.1-324.3-133-607.6-141.5-622l-5.4-94.2"/>
    <line class="cls-6" x1="587.36" y1="2946.09" x2="605.66" y2="3046.09"/>
    <path class="cls-6" d="M605.66,3046.09l-11.1,42.6h-102.1v-30.6l-88.5,19.6c-48.7,16.7-100.4,30.3-152.2,30.9-27.1.3-95,.5-99.7-37.4-1.4-11.2,19.6-39.5,23.7-45.3,8.2-11.5,25.9-11.5,38.5-9.5,18.1,2.9,36.8-3,53.8-9.2,7.3-2.7,14.7-5.4,22-8.2,16.3-6.2,32.3-12,46.3-22.7,13-10,66.6-38.9,77.5-51"/>
    <line class="cls-6" x1="753.36" y1="2946.09" x2="735.06" y2="3046.09"/>
    <path class="cls-6" d="M735.06,3046.09l11.1,42.6h102.2v-30.6l88.5,19.6c48.7,16.7,100.3,30.3,152.2,30.9,27.1.3,95,.5,99.7-37.4,1.4-11.2-19.6-39.5-23.7-45.3-8.2-11.5-25.9-11.5-38.5-9.5-18.2,2.9-36.8-3-53.8-9.2-7.3-2.7-14.7-5.4-22-8.2-16.3-6.2-32.3-12-46.3-22.7-13-10-55.7-26.8-66.6-38.9"/>
    <polyline class="cls-6" points="859.56 2015.69 898.86 2010.29 869.36 1784.79"/>
    <path class="cls-6" d="M658.46,676.29c-2.5,6-32.8,71.1,10.2,101.3"/>
    <path class="cls-6" d="M491.56,676.29c2.5,6,32.8,71.1-10.2,101.3l-51.8,28.5,149.8,45.4,149.8-44.3"/>
    <path class="cls-6" d="M413.86,66.79c22-31,42.1-43.3,65.5-55.3,24-12.3,50.1,93.5,179.6,110.4,167.8,21.9,151.9,100,151.9,100-1.5,18.3-13,120.2-36.7,162.5"/>
    <path class="cls-6" d="M383.06,124.29c-10,23-45.1,85.2-45,97.7.2,46.7,12.9,120.2,36.7,162.5"/>
    <path class="cls-5" d="M650.76,392.89h0c14.5,0,26.3,11.8,26.3,26.4s-11.8,26.3-26.3,26.3h0c-14.5,0-26.3-11.8-26.3-26.4s11.8-26.3,26.3-26.3"/>
    <path class="cls-5" d="M467.76,418.79c0-14.5,11.8-26.3,26.4-26.3s26.3,11.8,26.3,26.4-11.8,26.3-26.4,26.3-26.3-11.8-26.3-26.4h0Z"/>
    <path class="cls-6" d="M378.86,497.09c-12,3-27.5-17.9-34.6-46.7-7.1-28.8,7.2-54.9,19.3-57.9"/>
    <path class="cls-6" d="M782.56,390.09c12,3,27.9,31.5,20.8,60.2-7.1,28.7-22.6,49.6-34.6,46.7"/>
    <path class="cls-6" d="M632.16,202.19l-74.2,56v-57.2c-15.91-2.88-78.42-12.31-123.83,26.36-29.68,25.28-38.05,59.19-48.62,101.97-12.15,49.21-11.29,91.69-8.76,119.42,5.08,55.59,14.03,153.61,89.73,207.94,46.84,33.62,96.95,34.5,106.97,34.51,8.13,0,67-.8,118.2-42.74,66.71-54.65,73.71-140.93,78.7-202.36,1.45-17.88,3.75-60.95-8.12-113.74-9.93-44.15-17.99-79.96-49.43-104.99-28.97-23.05-63.23-25.37-80.65-25.17Z"/>
    <path class="cls-6" d="M513.66,587.29c8.7,16.7,26.2,32.2,59.8,32.2s51.1-15.5,59.8-32.2"/>
    <path class="cls-6" d="M371.56,1791.29l-39.6,575.9s81.8,471.7,81.8,558.1c0,0,153.3,7,182.6,20.8,0,0-33.8-409.9-33.8-555.6,0,0-6.1-343.7,32.2-420.3"/>
    <line class="cls-6" x1="581.06" y1="915.09" x2="581.06" y2="1184.79"/>
    <line class="cls-6" x1="581.06" y1="1472.39" x2="581.06" y2="1668.42"/>
    <line class="cls-6" x1="412.56" y1="1847.39" x2="403.46" y2="1984.89"/>
    <line class="cls-6" x1="772.46" y1="1134.79" x2="634.66" y2="1134.79"/>
    <g class="cls-4">
      <g class="cls-4">
        <text class="cls-1" transform="translate(640.96 1091.59)"><tspan x="0" y="0">K</tspan></text>
      </g>
    </g>
    <polygon class="cls-6" points="339.76 1791.29 452.36 1791.29 474.56 1681.89 336.96 1681.89 339.76 1791.29"/>
    <polygon class="cls-6" points="714.46 1791.29 870.06 1791.29 859.86 1681.89 692.66 1681.89 714.46 1791.29"/>
    <line class="cls-6" x1="656.56" y1="1733.59" x2="700.16" y2="1733.59"/>
    <line class="cls-6" x1="466.26" y1="1733.59" x2="513.56" y2="1733.59"/>
    <circle class="cls-6" cx="585.06" cy="1733.99" r="68.2"/>
  </g>
  <g id="Schweif">
    <g class="cls-4">
      <text class="cls-3" transform="translate(2439.85 1514.49) rotate(33)"><tspan x="0" y="0">0</tspan></text>
      <text class="cls-3" transform="translate(2396.28 1586.36) rotate(33)"><tspan x="0" y="0">1</tspan></text>
      <text class="cls-3" transform="translate(2352.71 1658.22) rotate(33)"><tspan x="0" y="0">0</tspan></text>
      <text class="cls-3" transform="translate(2309.14 1730.09) rotate(33)"><tspan x="0" y="0">1</tspan></text>
      <text class="cls-3" transform="translate(2265.49 1801.9) rotate(33)"><tspan x="0" y="0">0</tspan></text>
      <text class="cls-3" transform="translate(2221.92 1873.76) rotate(33)"><tspan x="0" y="0">1</tspan></text>
    </g>
    <g class="cls-4">
      <text class="cls-3" transform="translate(2479.95 1561.09) rotate(33)"><tspan x="0" y="0">1</tspan></text>
      <text class="cls-3" transform="translate(2436.38 1632.96) rotate(33)"><tspan x="0" y="0">1</tspan></text>
      <text class="cls-3" transform="translate(2392.81 1704.82) rotate(33)"><tspan x="0" y="0">0</tspan></text>
      <text class="cls-3" transform="translate(2349.24 1776.69) rotate(33)"><tspan x="0" y="0">0</tspan></text>
      <text class="cls-3" transform="translate(2305.59 1848.5) rotate(33)"><tspan x="0" y="0">1</tspan></text>
    </g>
    <g class="cls-4">
      <text class="cls-3" transform="translate(2539.65 1567.09) rotate(33)"><tspan x="0" y="0">1</tspan></text>
      <text class="cls-3" transform="translate(2496.08 1638.96) rotate(33)"><tspan x="0" y="0">0</tspan></text>
      <text class="cls-3" transform="translate(2452.51 1710.82) rotate(33)"><tspan x="0" y="0">0</tspan></text>
      <text class="cls-3" transform="translate(2408.94 1782.69) rotate(33)"><tspan x="0" y="0">1</tspan></text>
      <text class="cls-3" transform="translate(2365.29 1854.5) rotate(33)"><tspan x="0" y="0">0</tspan></text>
      <text class="cls-3" transform="translate(2321.72 1926.36) rotate(33)"><tspan x="0" y="0">1</tspan></text>
    </g>
  </g>
  <g id="Rakete_NEU">
    <g>
      <path class="cls-6" d="M2512.02,1449.35c-1.49-13.07-2.47-38.18,9.19-65.87,19.77-46.97,61.14-66.3,71.35-70.73-19.61-11.93-39.22-23.86-58.83-35.8,35.86-91.41,71.71-182.81,107.57-274.22,21.87-27.81,58-66.75,112.06-99.97,74.56-45.8,145.88-57.77,185.44-61.4,15.15,37.33,36.92,105.35,31.92,191.65-3.73,64.4-21.01,115.56-35.29,148.69-59.79,74.17-119.58,148.33-179.37,222.5-21.8-12.2-43.6-24.39-65.4-36.59.71,12.28.89,44.16-18.74,77.04-23.27,38.99-59.01,53.62-69.77,57.57"/>
      <path class="cls-6" d="M2636.63,1009.62c-10.23-5.28-26.95-11.87-46.34-9.41-46.82,5.93-73.14,60.04-89.16,92.97-9.9,20.35-23.43,54.6-27.28,101.16,26.44,4.88,52.88,9.77,79.33,14.65"/>
      <path class="cls-6" d="M2944.09,1184.76c9.59,6.36,23.49,17.75,30.8,35.88,17.63,43.78-16.79,93.12-37.74,123.16-12.95,18.56-36.27,47.06-75.05,73.11-17.15-20.71-34.3-41.42-51.44-62.13"/>
      <circle class="cls-6" cx="2800.35" cy="1068.64" r="72.89"/>
    </g>
  </g>
  <g id="Radar">
    <path class="cls-6" d="M1391.96,2248.99l71.7-96.2"/>
    <path class="cls-6" d="M1515.26,2161.79c29.2,73.7,58.3,147.3,87.5,221"/>
    <path class="cls-6" d="M1474.46,1683.19c-13.7,18.2-72.1,99.9-60.7,215.6,1.6,16.6,8.9,76.4,48.3,137.5-19,12-31.7,33.2-31.7,57.3,0,37.4,30.3,67.7,67.7,67.7s45.9-13,57.8-32.4c32,20.2,79.5,41.9,140.4,44.5,100.8,4.3,170.5-46.6,188.8-60.9-136.9-143.1-273.8-286.3-410.7-429.4l.1.1Z"/>
    <path class="cls-6" d="M1811.26,1784.79c-40.2,38.3-80.3,76.7-120.5,115"/>
    <circle class="cls-6" cx="1498.06" cy="2093.79" r="67.7"/>
  </g>
  <g id="Wolken">
    <path class="cls-6" d="M922.26,2167.49c11.8.4,23.7.9,35.5,1.3,7.1-93.6,84.5-162.7,166.3-161.5,92.4,1.4,173.9,92.3,159.3,198.3"/>
    <path class="cls-6" d="M1482.56,2416.59c-1.3-16.1-10.2-105.7-86.6-164.5-43.1-33.2-88.2-41.6-110.9-44.2"/>
    <path class="cls-6" d="M1578.66,2432.79c-14.8-5.7-33.9-11.3-56.5-14.3-14.7-1.9-28.1-2.3-39.6-1.9"/>
    <path class="cls-6" d="M1852.76,2406.79c-49.7-65.3-130-89.8-192.6-63.8-55.4,23-76.9,77.4-81.5,89.8"/>
    <path class="cls-6" d="M2063.26,2119.09c-23.8,16.3-79.9,59.6-111.1,138.3-21.6,54.7-22,103.5-20.1,131.4-11.1.4-24.6,1.7-39.7,5-15.8,3.5-29.1,8.4-39.6,13"/>
    <path class="cls-6" d="M3259.36,1566.09c-96.2-75.2-225.9-91.9-336.8-43.3-167.1,73.3-193.4,251.8-194.6,261.1-24.7,4.3-82.6,17.8-136.4,65.8-60.1,53.7-78.8,118.1-84.4,142-17.5-1.4-38.3-1.7-61.5.4-28.8,2.7-53.5,8.5-73.2,14.5-31.1-100.4-142.1-148.5-227.5-110.7-78.5,34.7-119.4,134.7-81.6,223.1"/>
  </g>
  <g id="Kreis">
    <path class="cls-6" d="M3059.39,2189.59c-229.55,340.52-618.79,564.47-1060.35,564.47-501.8,0-936.04-289.23-1145.11-710.08"/>
    <path class="cls-6" d="M893.13,835.55c221.19-381.01,633.63-637.22,1105.92-637.22,705.75,0,1277.87,572.12,1277.87,1277.87,0,150.79-26.12,295.48-74.08,429.8"/>
  </g>
  <g id="Mond">
    <path class="cls-6" d="M2281.15,1282.25c-159.41-58.79-273.09-212.07-273.09-391.9,0-230.62,186.95-417.57,417.57-417.57,128.25,0,242.99,57.82,319.59,148.81"/>
    <circle class="cls-6" cx="2332.38" cy="595.22" r="53.39"/>
    <circle class="cls-6" cx="2245.9" cy="879.37" r="60.89"/>
    <circle class="cls-6" cx="2110.27" cy="793.68" r="39.46"/>
    <path class="cls-6" d="M2346.53,999.74c-106.52-.32-213.04-.65-319.57-.97"/>
    <path class="cls-6" d="M2407.91,1047.48c-122.49,1.46-244.98,2.92-367.48,4.37"/>
    <path class="cls-6" d="M2185.78,1090.35c-42.52-.46-85.03-.92-127.55-1.38"/>
    <path class="cls-6" d="M2291,1132.24c-67.58,1.41-135.16,2.81-202.74,4.22"/>
    <path class="cls-6" d="M2368.94,1217.98c-66.42.77-132.84,1.55-199.26,2.32"/>
  </g>
  <g id="Sterne">
    <circle class="cls-6" cx="1024.91" cy="1302.54" r="5"/>
    <circle class="cls-6" cx="1722.51" cy="1482.45" r="5"/>
    <circle class="cls-6" cx="1730.96" cy="708.51" r="5"/>
    <circle class="cls-6" cx="2106.44" cy="374.76" r="5"/>
  </g>
</svg>