<?xml version="1.0" encoding="UTF-8" standalone="no"?>
<!-- Created with Inkscape (http://www.inkscape.org/) -->

<svg
   width="192.24593mm"
   height="242.62743mm"
   viewBox="0 0 192.24593 242.62743"
   version="1.1"
   id="svg1"
   xmlns:inkscape="http://www.inkscape.org/namespaces/inkscape"
   xmlns:sodipodi="http://sodipodi.sourceforge.net/DTD/sodipodi-0.dtd"
   xmlns="http://www.w3.org/2000/svg"
   xmlns:svg="http://www.w3.org/2000/svg">
  <sodipodi:namedview
     id="namedview1"
     pagecolor="#ffffff"
     bordercolor="#000000"
     borderopacity="0.25"
     inkscape:showpageshadow="2"
     inkscape:pageopacity="0.0"
     inkscape:pagecheckerboard="0"
     inkscape:deskcolor="#d1d1d1"
     inkscape:document-units="mm" />
  <defs
     id="defs1" />
  <g
     inkscape:label="Ebene 1"
     inkscape:groupmode="layer"
     id="layer1"
     transform="translate(-6.298093,-2.2814762)">
    <path
       class="cls-6"
       d="m 50.836174,223.18363 c -7.712816,-0.67426 -15.372712,-3.05769 -22.328947,-7.19144 -2.785239,-1.65625 -5.862525,-2.76172 -9.090736,-3.05964 l -11.0605899,-1.02119 3.3164119,4.21803 c 9.104457,11.58001 22.883643,18.70873 37.611498,18.89493 0.125443,0 0.250886,0.002 0.37633,0.004 l 2.120779,0.0137"
       id="path1"
       style="fill:none;stroke:#1c1a54;stroke-width:4.11612px;stroke-linecap:round;stroke-linejoin:round" />
    <path
       class="cls-6"
       d="M 112.58379,242.85083 H 145.793 c 0,-6.29962 -5.1079,-11.40752 -11.40752,-11.40752 h -1.7464 c 5.88996,-2.17763 10.54509,-7.10324 12.22681,-13.44206 1.7621,-6.63479 -0.0549,-13.70863 -4.79428,-18.67541 l -2.58532,-2.70879"
       id="path2"
       style="fill:none;stroke:#1c1a54;stroke-width:4.11612px;stroke-linecap:round;stroke-linejoin:round" />
    <path
       class="cls-6"
       d="m 63.878378,184.41374 v 0 c 2.70096,-2.67155 4.55713,-6.07813 5.33331,-9.79635 l 3.25173,-15.57264 c 3.75939,-17.99919 14.33977,-35.1281 28.262042,-47.13736"
       id="path3"
       style="fill:none;stroke:#1c1a54;stroke-width:4.11612px;stroke-linecap:round;stroke-linejoin:round" />
    <path
       class="cls-5"
       d="m 97.230678,236.66881 c -2.32855,0.34497 -4.82566,0.40181 -7.55993,0.147"
       id="path4"
       style="fill:#ffffff;stroke:#1c1a54;stroke-width:4.11612px;stroke-linecap:round;stroke-linejoin:round" />
    <path
       class="cls-6"
       d="m 83.286848,231.71771 c 5.82528,-2.1541 9.97668,-7.7579 9.97668,-14.33192 v 0 c 0,-13.99283 -8.35964,-26.03149 -20.35713,-31.39616 -10.290293,-4.60025 -22.242709,1.24855 -25.006387,12.17586 v 0 c -2.13842,8.45567 -0.995708,17.40724 3.19685,25.05538 l 4.784495,8.72813"
       id="path5"
       style="fill:none;stroke:#1c1a54;stroke-width:4.11612px;stroke-linecap:round;stroke-linejoin:round" />
    <path
       class="cls-6"
       d="m 60.912817,231.44134 c -2.467709,0 -4.757054,0.78599 -6.626946,2.12274 -4.029873,2.88128 -1.834612,9.28478 3.118447,9.28478 h 33.20921 c 0,-6.29961 -5.1079,-11.40752 -11.40752,-11.40752 h -7.11304"
       id="path6"
       style="fill:none;stroke:#1c1a54;stroke-width:4.11612px;stroke-linecap:round;stroke-linejoin:round" />
    <path
       class="cls-6"
       d="m 164.26456,164.63678 c 0,0 -2.23446,11.03511 -6.33097,16.99172 -5.34507,7.77162 -13.94188,14.50049 -23.37366,14.50049 v 0 c -9.43179,0 -17.9149,-5.74296 -21.41753,-14.50049"
       id="path7"
       style="fill:none;stroke:#1c1a54;stroke-width:4.11612px;stroke-linecap:round;stroke-linejoin:round" />
    <path
       class="cls-6"
       d="m 157.6729,75.397437 0.47825,5.25491 c 1.07803,9.57486 4.87662,18.64012 10.94691,26.121653 v 0 c 7.28748,8.98293 11.26247,20.1964 11.26247,31.76465"
       id="path8"
       style="fill:none;stroke:#1c1a54;stroke-width:4.11612px;stroke-linecap:round;stroke-linejoin:round" />
    <path
       class="cls-6"
       d="m 90.666448,144.88727 v -0.70758 c 0,-13.12453 4.54537,-25.84332 12.863852,-35.99641 v 0 c 7.12088,-8.690883 11.13507,-19.512353 11.40556,-30.745423 l 0.0686,-5.07655"
       id="path9"
       style="fill:none;stroke:#1c1a54;stroke-width:4.11612px;stroke-linecap:round;stroke-linejoin:round" />
    <path
       class="cls-6"
       d="m 160.53262,91.303287 c 0,5.44503 -3.42618,10.343213 -8.58112,12.099423 -4.14356,1.41124 -8.55172,2.11881 -13.23037,2.11881 -6.83471,0 -13.11278,-1.51316 -18.8381,-4.5336 -4.19843,-2.214863 -6.77395,-6.632833 -6.77395,-11.380083"
       id="path10"
       style="fill:none;stroke:#1c1a54;stroke-width:4.11612px;stroke-linecap:round;stroke-linejoin:round" />
    <g
       id="g13"
       transform="matrix(0.19600551,0,0,0.19600551,-469.27032,-378.54347)">
      <path
         class="cls-6"
         d="m 2962.82,1955.2 c 3.37,-1.18 6.91,-1.78 10.48,-1.77 v 0 c 17.41,0.03 31.5,14.17 31.46,31.58"
         id="path11"
         style="fill:none;stroke:#1c1a54;stroke-width:21px;stroke-linecap:round;stroke-linejoin:round" />
      <path
         class="cls-6"
         d="m 2935.62,2117.6 c -14.05,3.64 -29.55,-0.16 -40.26,-10.95"
         id="path12"
         style="fill:none;stroke:#1c1a54;stroke-width:21px;stroke-linecap:round;stroke-linejoin:round" />
      <path
         class="cls-6"
         d="m 2884.91,2128.24 57.96,-150.22 c 4.41,-11.43 11.1,-19.41 22.6,-23.63 v 0 l -147.64,51.59 c -18.79,6.58 -26.51,28.97 -15.78,45.73 l 51.03,79.73 c 7.92,12.38 26.55,10.5 31.84,-3.21 z"
         id="path13"
         style="fill:none;stroke:#1c1a54;stroke-width:21px;stroke-linecap:round;stroke-linejoin:round" />
    </g>
    <path
       class="cls-6"
       d="m 164.03916,4.68649 c -0.66054,-0.231287 -1.3544,-0.34889 -2.05414,-0.34693 v 0 c -3.41246,0.0059 -6.57402,3.310533 -6.56814,6.722989"
       id="path14"
       style="fill:none;stroke:#1c1a54;stroke-width:4.11612px;stroke-linecap:round;stroke-linejoin:round" />
    <path
       class="cls-6"
       d="m 168.5022,36.241417 c 2.86168,1.09567 6.19377,0.51549 8.51252,-1.63077"
       id="path15"
       style="fill:none;stroke:#1c1a54;stroke-width:4.11612px;stroke-linecap:round;stroke-linejoin:round" />
    <path
       class="cls-6"
       d="M 179.30799,38.603287 167.94751,9.159335 c -0.86438,-2.240343 -2.0953,-3.771146 -4.34937,-4.596329 v 0 l 28.8579,10.076643 c 3.68294,1.289717 5.1961,5.67828 3.09296,8.963332 l -10.00216,15.627516 c -1.55237,2.42655 -5.20394,2.05806 -6.24082,-0.62917 z"
       id="path16"
       style="fill:none;stroke:#1c1a54;stroke-width:4.11612px;stroke-linecap:round;stroke-linejoin:round" />
    <path
       class="cls-6"
       d="m 165.40336,27.342766 -5.04714,-9.492546 c -2.13059,-4.008313 -5.62537,-7.011117 -9.75324,-8.596802 -1.63861,-0.629178 -3.37522,-1.042749 -5.17063,-1.197594 -5.38819,-0.462573 -10.86851,-0.478253 -16.3841,-0.0196 -6.25453,0.521375 -11.81129,4.206278 -14.77293,9.739514 l -5.12358,9.576828 c -2.81464,5.262749 -3.73783,11.331081 -2.61472,17.191641 l 3.07925,16.07245 c 0.85262,4.44737 2.84208,8.57132 5.74688,11.98378 1.10939,1.30344 2.66175,3.63198 3.50849,5.11966 l 0.008,0.0137 c 0.54097,0.94867 0.8683,1.99534 1.04666,3.07337 0.22345,1.34852 0.61938,2.62647 1.1584,3.80447 2.02277,7.03267 8.49291,8.89669 16.17633,8.91041 8.20676,0.0157 15.05519,-2.54611 16.58207,-10.30793 0.20384,-0.60566 0.37437,-1.23092 0.50373,-1.87381 0.24697,-1.22896 0.60174,-2.43243 1.15448,-3.5575 0.82126,-1.67193 1.85617,-3.2341 3.10276,-4.61985 3.14785,-3.49478 5.30587,-7.79318 6.21337,-12.45027 l 3.14982,-16.15674 c 1.14271,-5.86448 0.23716,-11.942613 -2.56768,-17.217122 z m -11.22132,54.695341 c 0,0 0,0 0,0 0.0255,-0.098 0.049,-0.19601 0.0745,-0.29401 -0.0255,0.098 -0.051,0.196 -0.0745,0.29597 z m 0.28421,-1.38968 c -0.0373,0.22932 -0.0784,0.45473 -0.12545,0.68014 0.0451,-0.22541 0.0882,-0.45082 0.12545,-0.68014 0.049,-0.31361 0.0902,-0.6331 0.12152,-0.95455 -0.0313,0.32145 -0.0725,0.63898 -0.12152,0.95455 z"
       id="path17"
       style="fill:none;stroke:#1c1a54;stroke-width:4.11612px;stroke-linecap:round;stroke-linejoin:round" />
    <path
       class="cls-1"
       d="m 150.36189,35.759247 h 0.008 c 2.49124,0.004 4.50618,2.02865 4.50225,4.51988 -0.004,2.48927 -2.02278,4.50225 -4.51008,4.50225 -0.002,0 -0.006,0 -0.008,0 -2.49123,-0.004 -4.50616,-2.02866 -4.50224,-4.51989 0.004,-2.48927 2.02277,-4.50224 4.51008,-4.50224"
       id="path18"
       style="fill:#1c1a54;stroke-width:0.196005" />
    <path
       class="cls-1"
       d="m 118.98925,40.192887 c 0.004,-2.49123 2.02866,-4.50617 4.51988,-4.50225 2.49124,0.004 4.50618,2.02866 4.50225,4.51989 -0.004,2.49123 -2.02865,4.50617 -4.51988,4.50225 -2.49123,-0.004 -4.50617,-2.02866 -4.50225,-4.51989 z"
       id="path19"
       style="fill:#1c1a54;stroke-width:0.196005" />
    <path
       class="cls-1"
       d="m 139.97752,72.927767 2.57943,-2.26778 c 1.73465,-1.52493 2.97732,-3.53006 3.56927,-5.76257 v 0 c 0.86438,-3.25173 -1.58373,-6.44074 -4.94914,-6.44858 l -7.91275,-0.0157 c -3.36541,-0.006 -5.82528,3.17333 -4.97266,6.42898 v 0 c 0.5841,2.23446 1.81893,4.24548 3.5477,5.77628 l 2.57159,2.27759 c 1.58764,1.40536 3.97303,1.41124 5.5646,0.01 z"
       id="path20"
       style="fill:#1c1a54;stroke-width:0.196005" />
    <path
       class="cls-6"
       d="m 180.36053,138.53865 c 0,4.68453 1.29756,8.46548 2.04042,11.05667 l 1.38184,4.81194 c 2.75388,9.58859 2.56571,19.78283 -0.54098,29.26362 l -4.66101,14.22804 c -3.70254,11.29972 -2.90284,23.56378 2.17959,34.25588 0.65269,1.374 1.05254,2.8558 1.20151,4.36897 l 0.61741,6.32706 h -10.25696 c -5.06871,0 -9.54351,-3.3125 -11.02139,-8.16167 l -0.65466,-2.14235 c -0.55077,-1.80325 -0.76638,-3.69078 -0.63702,-5.57047 l 4.7943,-70.2523"
       id="path21"
       style="fill:none;stroke:#1c1a54;stroke-width:4.11612px;stroke-linecap:round;stroke-linejoin:round" />
    <path
       class="cls-6"
       d="m 90.666448,144.88727 c 0.73307,14.58281 1.04863,31.48632 5.02951,46.04561 l 3.41441,10.41966 c 3.255652,9.93356 3.218412,20.65114 -0.10192,30.56118 l -1.15447,3.44577 c -1.23484,3.68295 1.50532,7.49134 5.390142,7.49134 h 8.91042 c 2.895,0 5.33331,-2.16195 5.68416,-5.03539 l 0.61154,-5.0295 c 0.1372,-1.12507 0.14308,-2.2619 0.0176,-3.38893 l -7.31297,-66.04014"
       id="path22"
       style="fill:none;stroke:#1c1a54;stroke-width:4.11612px;stroke-linecap:round;stroke-linejoin:round" />
    <path
       class="cls-6"
       d="m 116.86847,74.584017 8.31848,5.0295 c 2.3403,1.66016 4.91581,1.84245 7.01699,0.98395 l 3.53006,-1.27796 c 0.94475,-0.34105 1.97966,-0.33713 2.92244,0.0118 l 3.45558,1.28383 c 2.09726,0.86635 4.67277,0.69386 7.02091,-0.95846 l 7.91471,-4.7453"
       id="path23"
       style="fill:none;stroke:#1c1a54;stroke-width:4.11612px;stroke-linecap:round;stroke-linejoin:round" />
    <path
       class="cls-5"
       d="m 125.74752,29.61055 c -0.28029,0.01568 -3.01457,-0.980028 -5.09614,-0.425332 -2.21878,0.591937 -3.78291,2.734277 -3.78291,2.734277"
       id="path24"
       style="fill:#ffffff;stroke:#1c1a54;stroke-width:4.11612px;stroke-linecap:round;stroke-linejoin:round" />
    <path
       class="cls-5"
       d="m 148.35872,29.61055 c 0.28028,0.01568 3.01456,-0.980028 5.09614,-0.425332 2.21878,0.591937 3.7829,2.734277 3.7829,2.734277"
       id="path25"
       style="fill:#ffffff;stroke:#1c1a54;stroke-width:4.11612px;stroke-linecap:round;stroke-linejoin:round" />
    <path
       class="cls-6"
       d="m 147.04744,81.326607 v 0.21756 c -0.25481,5.20003 -4.54341,5.60968 -9.8042,5.59988 -5.22942,-0.01 -9.4847,-0.38613 -9.76499,-5.545"
       id="path26"
       style="fill:none;stroke:#1c1a54;stroke-width:4.11612px;stroke-linecap:round;stroke-linejoin:round" />
    <circle
       class="cls-4"
       cx="137.8195"
       cy="118.88322"
       id="circle26"
       style="fill:#00ff64;stroke:#1c1a54;stroke-width:4.11612px;stroke-linecap:round;stroke-linejoin:round"
       r="13.361695" />
    <text
       class="cls-2"
       id="text35"
       style="font-weight:700;font-size:21.7292px;font-family:EuclidCircularB-Bold, 'Euclid Circular B';letter-spacing:-0.03em;fill:#1c1a54;stroke-width:0.196005"
       x="131.90405"
       y="127.65837"><tspan
         x="131.90405"
         y="127.65837"
         id="tspan35"
         style="stroke-width:0.196005">T</tspan></text>
  </g>
</svg>
