<?xml version="1.0" encoding="UTF-8"?>
<svg id="Ebene_1" xmlns="http://www.w3.org/2000/svg" viewBox="0 0 468.86 359.18">
  <defs>
    <style>
      .cls-1 {
        fill: #000e52;
      }

      .cls-2 {
        fill: none;
        stroke: #000e52;
        stroke-miterlimit: 10;
        stroke-width: 13px;
      }
    </style>
  </defs>
  <g id="Tim">
    <g>
      <g>
        <path class="cls-2" d="M132.41,7.87c2.59-.91,5.25-1.37,7.99-1.37h0c13.23,0,23.96,10.8,23.96,24.03"/>
        <path class="cls-2" d="M111.72,131.37c-10.72,2.74-22.51-.15-30.65-8.29"/>
        <path class="cls-2" d="M73.17,139.43L117.28,25.21c3.35-8.67,8.44-14.75,17.19-17.95h0L22.21,46.5c-14.3,5.02-20.15,22.05-12.02,34.75l38.79,60.61c6.01,9.43,20.23,7.99,24.18-2.43h0Z"/>
      </g>
      <path class="cls-2" d="M336.45,7.87c-2.59-.91-5.25-1.37-7.99-1.37h0c-13.23,0-25.48,12.85-25.48,26.08"/>
      <path class="cls-2" d="M353.71,130.31c11.1,4.26,24.03,1.98,33.01-6.31"/>
      <path class="cls-2" d="M395.69,139.43l-44.11-114.23c-3.35-8.67-8.14-14.6-16.88-17.8h0l111.94,39.09c14.3,5.02,20.15,22.05,12.02,34.75l-38.79,60.61c-6.01,9.43-20.23,7.99-24.18-2.43h0Z"/>
      <path class="cls-2" d="M341.7,95.78l-19.62-36.81c-8.29-15.51-21.83-27.23-37.87-33.39-6.39-2.43-13.08-4.03-20.08-4.64-20.91-1.83-42.13-1.83-63.58,0-24.26,2.05-45.86,16.35-57.34,37.8l-19.85,37.19c-10.95,20.46-14.53,43.96-10.11,66.7l11.94,62.36c3.35,17.26,11.03,33.23,22.28,46.47,4.33,5.02,10.34,14.07,13.61,19.85h0c2.13,3.73,3.35,7.76,4.03,12.02.84,5.25,2.43,10.19,4.49,14.75,7.83,27.3,32.93,34.53,62.74,34.6,31.86,0,58.41-9.89,64.34-40,.76-2.36,1.44-4.79,1.98-7.3.99-4.79,2.36-9.43,4.49-13.77,3.19-6.46,7.22-12.55,12.02-17.95,12.24-13.54,20.61-30.27,24.11-48.29l12.24-62.66c4.41-22.74.91-46.31-9.96-66.77h0l.15-.15h0ZM298.2,307.96h0c.08-.38.15-.76.3-1.14-.08.38-.23.76-.3,1.14h0ZM299.26,302.56c-.15.91-.3,1.75-.46,2.66.15-.84.3-1.75.46-2.66.15-1.22.38-2.43.46-3.73-.15,1.22-.3,2.51-.46,3.73Z"/>
      <path class="cls-1" d="M283.37,128.41h0c9.66,0,17.49,7.91,17.49,17.57s-7.83,17.49-17.49,17.49h0c-9.66,0-17.49-7.91-17.49-17.57s7.83-17.49,17.49-17.49"/>
      <path class="cls-1" d="M161.61,145.59c0-9.66,7.91-17.49,17.57-17.49s17.49,7.91,17.49,17.57-7.91,17.49-17.57,17.49-17.49-7.91-17.49-17.57Z"/>
      <path class="cls-1" d="M243.06,272.6l10.04-8.82c6.77-5.93,11.56-13.69,13.84-22.36h0c3.35-12.62-6.16-25.02-19.16-25.02h-30.72c-13.08-.08-22.59,12.24-19.32,24.87h0c2.28,8.67,7.07,16.5,13.77,22.43l9.96,8.82c6.16,5.48,15.44,5.48,21.6,0h0v.08h0Z"/>
      <path class="cls-2" d="M153.4,279.06l32.24,19.54c9.05,6.46,19.09,7.15,27.23,3.8l13.69-4.94c3.65-1.29,7.68-1.29,11.33,0l13.38,5.02c8.14,3.35,18.1,2.66,27.23-3.73l30.72-18.4"/>
      <path class="cls-2" d="M187.85,104.53c-1.06,0-11.71-3.8-19.77-1.67-8.59,2.28-14.68,10.57-14.68,10.57"/>
      <path class="cls-2" d="M275.61,104.53c1.06,0,11.71-3.8,19.77-1.67,8.59,2.28,14.68,10.57,14.68,10.57"/>
      <path class="cls-2" d="M270.52,305.22v.84c-.99,20.15-17.64,21.75-38.02,21.75s-36.81-1.52-37.87-21.52"/>
    </g>
  </g>
</svg>